/* XPM */
static char *door[] = {
"40 40 16 1",
"  c #1B1B1B",       /* fondo oscuro */
". c #5A3A1A",       /* madera base oscura */
"+ c #8C5E2A",       /* madera media */
"# c #C19A5D",       /* madera clara */
"O c #D4B06E",       /* madera muy clara */
"@ c #5C3A19",       /* sombra profunda */
"$ c #A3743C",       /* veta oscura madera */
"% c #735022",       /* veta clara madera */
"& c #403015",       /* borde marco */
"* c #E4C47F",       /* pomo claro */
"= c #B2905A",       /* pomo medio */
"- c #6D4C23",       /* bisagra sombra */
": c #A17A40",       /* bisagra luz */
"; c #7A5A2B",       /* bisagra medio */
"> c #D9C06A",       /* reflejo pomo */
"! c #392E18",       /* tachuelas/ clavos */
"                                        ",
"              ..............            ",
"            ....++++++++++++..          ",
"          ...+++++######++++++..        ",
"        ..++++++########+++++++..       ",
"       ..+++++++#########+++++++..      ",
"      ..++++++++##########+++++++..     ",
"     ..+++++++++##########+++++++..     ",
"    ..++++++++++###########+++++++..    ",
"   ..+++++++++++###########+++++++..    ",
"   ..++++++!++++###########+++++++..    ",
"  ..+++++.!+++++###########+++++++..    ",
"  ..+++++++!++++###########+++++++..    ",
"  ..+++++++O++++###########+++++++..    ",
"  ..+++++++OO+++###########+++++++..    ",
"  ..+++++++OOO++###########+++++++..    ",
"  ..+++++++OOO++###########+++++++..    ",
"  ..+++++++OOO++###########+++++++..    ",
"  ..+++++++OOO++###########+++++++..    ",
"  ..+++++++OOO++###########+++++++..    ",
"  ..+++++++OOO++###########+++++++..    ",
"  ..+++++++OOO++###########+++++++..    ",
"  ..+++++++OOO++###########+++++++..    ",
"  ..+++++++OOO++###########+++++++..    ",
"  ..+++++++OOO++###########+++++++..    ",
"  ..+++++++OOO++###########+++++++..    ",
"  ..+++++++OOO++###########+++++++..    ",
"  ..+++++++OOO++###########+++++++..    ",
"  ..+++++++OOO++###########+++++++..    ",
"  ..+++++++OOO++###########+++++++..    ",
"  ..+++++++OOO++###########+++++++..    ",
"  ..+++++++OOO++###########+++++++..    ",
"  ..+++++++OOO++###########+++++++..    ",
"  ..+++++++OOO++###########+++++++..    ",
"  ..+++++++OOO++###########+++++++..    ",
"  ..+++++++++O++###########+++++++..    ",
"   ..++++++++++###########+++++++..     ",
"    ..+++++++++###########+++++++..     ",
"     ..+++++++###########+++++++..      ",
"      ..++++++##########+++++++..       ",
"       ..+++++#########+++++++..        ",
"        ..++++########+++++++..         ",
"         ..+++######+++++++..           ",
"          ..+++++++++++++..             ",
"           ................             ",
"           ::::::::::::::               "
};
